<?xml version="1.0" standalone="no"?><!DOCTYPE svg PUBLIC "-//W3C//DTD SVG 1.1//EN" "http://www.w3.org/Graphics/SVG/1.1/DTD/svg11.dtd"><svg t="1591162933688" class="icon" viewBox="0 0 1024 1024" version="1.1" xmlns="http://www.w3.org/2000/svg" p-id="1221" width="32" height="32" xmlns:xlink="http://www.w3.org/1999/xlink"><defs><style type="text/css"></style></defs><path d="M128 896c-35.3456 0-64-28.6544-64-64V192c0-35.3456 28.6544-64 64-64h337.1136a64 64 0 0 1 55.1744 31.568L576.968 256h318.2688c35.3456 0 64 28.6544 64 64a64 64 0 0 1-1.6624 14.4896l-119.0048 512C831.8304 875.4816 805.9952 896 776.2304 896H128z m767.2368-592H257.3696a16 16 0 0 0-15.584 12.3776l-119.008 512a16 16 0 0 0-0.4144 3.6224c0 8.8368 7.1632 16 16 16h637.8672a16 16 0 0 0 15.584-12.3776l119.008-512a16 16 0 0 0 0.4144-3.6224c0-8.8368-7.1632-16-16-16z m-430.1232-128H128c-8.8368 0-16 7.1632-16 16v470.7312l83.0304-357.2208c6.7392-28.992 32.5744-49.5104 62.3392-49.5104h263.9216l-42.384-72.1072a16 16 0 0 0-13.28-7.8848l-0.5136-0.008z" fill="currentColor" p-id="1222"></path></svg>