<?xml version="1.0" standalone="no"?><!DOCTYPE svg PUBLIC "-//W3C//DTD SVG 1.1//EN" "http://www.w3.org/Graphics/SVG/1.1/DTD/svg11.dtd"><svg t="1590549158462" class="icon" viewBox="0 0 1024 1024" version="1.1" xmlns="http://www.w3.org/2000/svg" p-id="12924" xmlns:xlink="http://www.w3.org/1999/xlink" width="32" height="32"><defs><style type="text/css"></style></defs><path d="M929.352875 719.998241l-605.100398-0.760317 32.57593-53.045123 431.198719 0c11.781324 0 22.205745-7.383154 26.169009-18.432815L954.92632 254.540254c3.040243-8.524141 1.791809-17.971303-3.420913-25.382087-5.212722-7.384178-13.681604-11.782348-22.748097-11.782348L274.46556 217.375819l-27.526937-115.346051c-2.986007-12.514012-14.170744-21.336958-27.037796-21.336958-0.054235 0-0.10847 0-0.162706 0l-125.254725 0.678452c-15.364943 0.081864-27.743878 12.595876-27.635407 27.960819 0.10847 15.284101 12.487406 27.635407 27.798113 27.635407 0.054235 0 0.10847 0 0.162706 0l103.211686-0.569982 114.342188 478.841809 2.443655 13.138228-63.903425 104.053867c-5.212722 8.578376-5.429663 19.329231-0.543376 28.123524 4.886287 8.768711 14.170744 14.224979 24.215518 14.224979l654.724609 0.814552 0.054235 0c15.310707 0 27.743878-12.43317 27.798113-27.771507C957.152011 732.485647 944.718841 720.024847 929.352875 719.998241z" p-id="12925" fill="#currentColor"></path><path d="M372.737748 797.392936c-40.177048 0-72.915683 32.712029-72.915683 72.943312s32.738635 72.970942 72.915683 72.970942c40.285518 0 72.969918-32.738635 72.969918-72.970942S413.023266 797.392936 372.737748 797.392936z" p-id="12926" fill="#currentColor"></path><path d="M761.913375 797.392936c-40.178071 0-72.916706 32.712029-72.916706 72.943312s32.738635 72.970942 72.916706 72.970942c40.285518 0 72.970942-32.738635 72.970942-72.970942S802.198893 797.392936 761.913375 797.392936z" p-id="12927" fill="#currentColor"></path></svg>